# xmcd
#
# Track frame offsets:
#	150
#	22586
#	36650
#	56032
#	80013
#	106025
#	127647
#	150159
#	175456
#	202393
#	222973
#	243574
#	255676
#	272353
#	306078
#
# Disc length: 4399
#
# Revision: 5
# Processed by: cddbd v1.5.1PL0 Copyright (c) Steve Scherf et al.
# Submitted via: EZCDDA 4.3.3.2
# Normalized: r4:DSETVAR1,TDELIM( - )
#
DISCID=c7112d0f
DTITLE=Various Artist - HIT PARADE - XX CENTURY - BLUES BALLADS
DYEAR=1900
DGENRE=
TTITLE0=B.B.King - The Thrill Is Gone
TTITLE1=G.Moore - I'd Loved Another Woman
TTITLE2=ZZ Top - A Food For Your Stocking
TTITLE3=A.Myles - Family Secret
TTITLE4=Whitesnake - Too Many Tears
TTITLE5=J.Lee Hooker - Chil Out
TTITLE6=L.Gardner - Another Bad Day
TTITLE7=Carolina - Keep Me In Your Mind
TTITLE8=Blues Company - Silent Nite
TTITLE9=Shania Twain - I'm Outta Here
TTITLE10=Robin Prower - Shining Phrough
TTITLE11=J.J.Cale - A Thing Going On
TTITLE12=Vaia Con Dios - Time Files
TTITLE13=A.Lee and Ten Years After - The Bluest Blues
TTITLE14=J.Mayall - Sensitive Kind
EXTD=
EXTT0=
EXTT1=
EXTT2=
EXTT3=
EXTT4=
EXTT5=
EXTT6=
EXTT7=
EXTT8=
EXTT9=
EXTT10=
EXTT11=
EXTT12=
EXTT13=
EXTT14=
PLAYORDER=
